<?xml version="1.0" standalone="no"?>
<!DOCTYPE svg PUBLIC "-//W3C//DTD SVG 20010904//EN"
 "http://www.w3.org/TR/2001/REC-SVG-20010904/DTD/svg10.dtd">
<svg version="1.0" xmlns="http://www.w3.org/2000/svg"
 width="96.000000pt" height="96.000000pt" viewBox="0 0 96.000000 96.000000"
 preserveAspectRatio="xMidYMid meet">

<g transform="translate(0.000000,96.000000) scale(0.100000,-0.100000)"
fill="#000000" stroke="none">
<path d="M117 842 c-15 -15 -27 -35 -26 -43 0 -7 17 -41 38 -74 36 -58 39 -60
83 -63 40 -3 51 -9 104 -63 l59 -59 -138 -138 c-123 -123 -139 -143 -143 -178
-6 -48 11 -81 56 -112 27 -18 44 -23 74 -19 34 5 54 21 147 113 l109 108 107
-106 c60 -58 119 -109 131 -113 38 -11 86 3 118 36 24 25 29 39 29 79 0 49 -1
51 -94 144 l-93 94 38 12 c81 26 135 91 149 176 7 48 -8 116 -31 135 -13 10
-25 3 -83 -55 -65 -64 -68 -66 -84 -48 -9 10 -17 23 -17 28 0 5 29 39 65 74
l65 64 -25 14 c-14 7 -48 16 -75 19 -121 14 -229 -85 -230 -212 0 -16 -7 -39
-15 -50 -15 -18 -18 -17 -75 40 -53 52 -59 63 -62 103 -3 44 -5 47 -63 83 -33
21 -67 38 -76 38 -8 1 -27 -12 -42 -27z m500 -90 l-57 -57 56 -63 c31 -34 61
-62 67 -62 6 0 35 23 64 52 29 28 55 49 58 46 4 -3 1 -24 -4 -46 -20 -71 -107
-126 -174 -108 -18 4 -52 -24 -208 -179 -194 -193 -210 -204 -249 -165 -39 39
-28 55 164 249 l183 186 -4 41 c-9 79 61 162 137 164 22 0 19 -5 -33 -58z
m-410 27 c35 -22 41 -51 12 -57 -10 -2 -25 11 -38 31 -33 54 -28 59 26 26z
m603 -567 c0 -28 -34 -62 -61 -62 -14 0 -59 37 -126 102 l-103 102 42 43 43
44 102 -104 c67 -67 103 -111 103 -125z"/>
</g>
</svg>
